<?xml version="1.0" encoding="UTF-8"?>
<svg width="77px" height="80px" viewBox="0 0 77 80" version="1.1" xmlns="http://www.w3.org/2000/svg" xmlns:xlink="http://www.w3.org/1999/xlink">
    <!-- Generator: Sketch 52.2 (67145) - http://www.bohemiancoding.com/sketch -->
    <title>Group 4</title>
    <desc>Created with Sketch.</desc>
    <g id="v2" stroke="none" stroke-width="1" fill="none" fill-rule="evenodd">
        <g id="Group-4" fill="currentColor">
            <path d="M0.31766,39.49045 C0.31471,46.45093 2.07065,53.24692 5.4031,59.23263 L0,79.6998 L20.18881,74.20757 C25.75367,77.35425 32.01856,79.01136 38.39227,79.01441 L38.40697,79.01441 C59.39875,79.01441 76.48747,61.29488 76.49335,39.52091 C76.4963,28.96596 72.5403,19.04461 65.34892,11.58151 C58.15754,4.11841 48.5955,0.00305 38.40697,0 C17.41226,0 0.32942,17.71648 0.31766,39.49045 Z M12.59134,57.53193 L11.83838,56.28909 C8.67064,51.06493 6.99706,45.02439 7,38.8224 C7.00589,20.72515 21.20629,6 38.66855,6 C47.12468,6.00305 55.07196,9.42084 61.0486,15.62587 C67.02818,21.82786 70.31651,30.07687 70.31063,38.84982 C70.30769,56.94707 56.10435,71.67222 38.65679,71.67222 L38.64502,71.67222 C32.96251,71.66917 27.39176,70.08821 22.52986,67.09688 L21.37688,66.38712 L9.39419,69.64347 L12.59134,57.53193 Z M22.33245,22.2337 C21.45889,23.2237 19,25.61189 19,30.46747 C19,35.32306 22.41186,40.01414 22.88835,40.67212 C23.36189,41.33313 29.59736,51.30018 39.14469,55.57394 C41.41534,56.59441 43.18892,57.19755 44.56837,57.65447 C46.84785,58.40383 48.92438,58.29721 50.56266,58.04438 C52.39213,57.76109 56.19224,55.65923 56.98637,53.35329 C57.78052,51.04735 57.78052,49.07343 57.54227,48.65916 C57.30109,48.24792 56.66872,48.00118 55.71575,47.50771 C54.76572,47.01423 50.08618,44.62604 49.21557,44.29705 C48.34201,43.96806 47.70964,43.80357 47.07433,44.79053 C46.43902,45.77748 44.61544,48.00118 44.06248,48.65916 C43.50658,49.32018 42.95068,49.39938 42.00066,48.90589 C41.04769,48.41241 37.97995,47.37063 34.3475,44.01071 C31.51801,41.39101 29.60619,38.15903 29.05323,37.17208 C28.49733,36.18512 28.99146,35.64899 29.46795,35.15856 C29.89737,34.71687 30.42091,34.00407 30.89445,33.42834 C31.37094,32.85262 31.52977,32.43834 31.84742,31.78342 C32.16508,31.1224 32.00625,30.54972 31.76801,30.05624 C31.52977,29.56276 29.62677,24.70413 28.83558,22.72717 C28.1532,21.03351 27.46201,21.03351 26.90905,21.03655 C26.83552,21.03655 26.76199,21.03655 26.69434,21.03351 C26.13844,21.00609 25.50313,21 24.87075,21 C24.23544,21 23.20306,21.24674 22.33245,22.2337 Z" id="Fill-3"></path>
        </g>
    </g>
</svg>
